<svg xmlns="http://www.w3.org/2000/svg" viewBox="0 0 512 512">
  <defs>
    <linearGradient id="grad" x1="0%" y1="0%" x2="100%" y2="100%">
      <stop offset="0%" style="stop-color:#8b5cf6;stop-opacity:1" />
      <stop offset="100%" style="stop-color:#7c3aed;stop-opacity:1" />
    </linearGradient>
  </defs>
  <rect width="512" height="512" rx="96" fill="url(#grad)"/>
  <g transform="translate(96, 96) scale(1.25)">
    <path fill="#ffffff" d="M192 64C138.4 64 90.4 91.1 64 132.2V64H32v96h96v-32H76.6c22.3-38.4 63.8-64 111.4-64c70.7 0 128 57.3 128 128s-57.3 128-128 128c-47.6 0-89.1-26.2-111.4-65H44.2c26.4 61.1 87.4 104 158.8 104c95.2 0 172-76.8 172-172S287.2 64 192 64zm-32 80v88c0 13.3 10.7 24 24 24h64c13.3 0 24-10.7 24-24s-10.7-24-24-24h-40v-64c0-13.3-10.7-24-24-24s-24 10.7-24 24z"/>
  </g>
</svg>
